<?xml version="1.0" encoding="utf-8"?>
<!-- Generator: Adobe Illustrator 15.1.0, SVG Export Plug-In . SVG Version: 6.00 Build 0)  -->
<!DOCTYPE svg PUBLIC "-//W3C//DTD SVG 1.1//EN" "http://www.w3.org/Graphics/SVG/1.1/DTD/svg11.dtd">
<svg version="1.1" id="Layer_1" xmlns="http://www.w3.org/2000/svg" xmlns:xlink="http://www.w3.org/1999/xlink" x="0px" y="0px"
	 width="264px" height="191px" viewBox="0 0 264 191" enable-background="new 0 0 264 191" xml:space="preserve">
<g>
	<path fill="#333333" d="M85.5,104.53c0.308,0.485,0.712,0.871,1.212,1.155c0.5,0.287,1.065,0.492,1.695,0.614
		c0.628,0.125,1.277,0.187,1.944,0.187c0.513,0,1.052-0.035,1.616-0.112c0.565-0.074,1.085-0.209,1.56-0.408
		c0.475-0.198,0.866-0.491,1.174-0.875c0.308-0.386,0.463-0.875,0.463-1.473c0-0.82-0.323-1.44-0.963-1.864
		c-0.642-0.421-1.444-0.763-2.407-1.024c-0.962-0.259-2.01-0.497-3.138-0.708c-1.129-0.211-2.174-0.51-3.139-0.895
		c-0.961-0.384-1.764-0.925-2.406-1.621c-0.641-0.694-0.962-1.664-0.962-2.907c0-0.968,0.224-1.801,0.673-2.496
		c0.45-0.696,1.027-1.261,1.734-1.697c0.705-0.434,1.501-0.757,2.387-0.967c0.886-0.212,1.765-0.317,2.637-0.317
		c1.13,0,2.17,0.093,3.12,0.279c0.95,0.186,1.79,0.509,2.521,0.968c0.732,0.46,1.315,1.081,1.753,1.864
		c0.436,0.782,0.693,1.758,0.769,2.925h-3.271c-0.052-0.62-0.218-1.136-0.5-1.545c-0.284-0.41-0.643-0.739-1.079-0.99
		c-0.437-0.246-0.918-0.427-1.445-0.539c-0.525-0.112-1.058-0.167-1.597-0.167c-0.488,0-0.982,0.037-1.482,0.111
		c-0.5,0.075-0.956,0.205-1.367,0.393c-0.412,0.185-0.744,0.433-1.001,0.744c-0.256,0.312-0.385,0.714-0.385,1.21
		c0,0.547,0.199,1.001,0.598,1.361c0.397,0.359,0.905,0.658,1.521,0.894c0.616,0.237,1.31,0.436,2.079,0.597
		c0.771,0.162,1.541,0.329,2.311,0.503c0.821,0.175,1.623,0.386,2.407,0.633c0.782,0.249,1.476,0.577,2.079,0.988
		c0.604,0.41,1.091,0.927,1.463,1.548c0.372,0.62,0.558,1.391,0.558,2.31c0,1.169-0.25,2.136-0.75,2.906
		c-0.5,0.771-1.155,1.394-1.963,1.864c-0.809,0.473-1.72,0.802-2.735,0.987c-1.013,0.187-2.021,0.279-3.022,0.279
		c-1.104,0-2.156-0.111-3.157-0.336c-1.001-0.223-1.887-0.589-2.656-1.1c-0.771-0.508-1.387-1.179-1.849-2.012
		c-0.462-0.833-0.719-1.846-0.771-3.038h3.273C85.024,103.457,85.192,104.047,85.5,104.53z"/>
	<rect x="102.442" y="89.568" fill="#333333" width="3.272" height="19.268"/>
	<path fill="#333333" d="M119.307,89.568v2.795h-3.966v11.963c0,0.372,0.032,0.671,0.095,0.894c0.063,0.226,0.186,0.398,0.367,0.523
		c0.179,0.124,0.43,0.204,0.75,0.241c0.321,0.037,0.739,0.056,1.252,0.056h1.502v2.796h-2.503c-0.848,0-1.572-0.056-2.175-0.168
		c-0.604-0.111-1.092-0.317-1.464-0.614c-0.372-0.3-0.648-0.721-0.827-1.268c-0.181-0.547-0.27-1.268-0.27-2.161V92.363h-3.388
		v-2.795h3.388v-5.776h3.273v5.776H119.307z"/>
	<path fill="#333333" d="M137.018,107.604c-1.488,1.094-3.364,1.641-5.622,1.641c-1.592,0-2.971-0.248-4.139-0.745
		c-1.168-0.496-2.151-1.194-2.945-2.087c-0.796-0.895-1.393-1.963-1.792-3.205c-0.397-1.243-0.622-2.597-0.673-4.063
		c0-1.464,0.231-2.806,0.693-4.023c0.462-1.217,1.11-2.274,1.945-3.168c0.833-0.895,1.823-1.589,2.964-2.087
		c1.142-0.496,2.393-0.745,3.753-0.745c1.773,0,3.241,0.354,4.409,1.061c1.168,0.709,2.104,1.609,2.812,2.702
		c0.706,1.094,1.193,2.288,1.464,3.579c0.268,1.292,0.378,2.521,0.326,3.69h-14.9c-0.026,0.844,0.077,1.646,0.309,2.402
		c0.23,0.759,0.602,1.43,1.115,2.013c0.513,0.585,1.168,1.05,1.964,1.397c0.795,0.349,1.733,0.521,2.811,0.521
		c1.387,0,2.522-0.309,3.408-0.931c0.885-0.619,1.469-1.564,1.752-2.832h3.234C139.469,104.886,138.505,106.513,137.018,107.604z
		 M136.228,95.233c-0.294-0.671-0.693-1.249-1.194-1.733c-0.5-0.485-1.092-0.87-1.771-1.155s-1.431-0.429-2.251-0.429
		c-0.849,0-1.612,0.143-2.291,0.429c-0.681,0.286-1.265,0.675-1.752,1.173c-0.487,0.498-0.873,1.076-1.155,1.734
		c-0.282,0.658-0.449,1.359-0.5,2.104h11.436C136.695,96.611,136.522,95.904,136.228,95.233z"/>
	<path fill="#333333" d="M146.989,89.568v2.61h0.076c0.541-1.069,1.387-1.846,2.543-2.331c1.156-0.484,2.426-0.726,3.812-0.726
		c1.541,0,2.881,0.272,4.023,0.82c1.143,0.546,2.093,1.285,2.849,2.216c0.758,0.933,1.329,2.007,1.714,3.224
		c0.387,1.218,0.579,2.509,0.579,3.876c0,1.366-0.187,2.659-0.561,3.876c-0.371,1.218-0.936,2.279-1.693,3.187
		c-0.756,0.906-1.708,1.621-2.849,2.143c-1.143,0.521-2.472,0.782-3.986,0.782c-0.486,0-1.033-0.051-1.636-0.148
		c-0.604-0.1-1.201-0.261-1.79-0.484c-0.591-0.224-1.15-0.528-1.676-0.914c-0.525-0.385-0.968-0.862-1.329-1.435h-0.076v9.913
		h-3.272V89.568H146.989z M158.754,96.406c-0.245-0.857-0.618-1.619-1.119-2.291c-0.5-0.671-1.142-1.206-1.924-1.603
		c-0.783-0.397-1.7-0.596-2.754-0.596c-1.103,0-2.04,0.212-2.811,0.634c-0.771,0.422-1.399,0.976-1.886,1.658
		c-0.488,0.684-0.841,1.461-1.06,2.329c-0.218,0.87-0.328,1.752-0.328,2.647c0,0.944,0.116,1.855,0.349,2.737
		c0.23,0.884,0.596,1.66,1.097,2.33s1.147,1.211,1.943,1.621c0.796,0.409,1.759,0.613,2.888,0.613c1.13,0,2.073-0.21,2.831-0.632
		c0.757-0.423,1.367-0.981,1.829-1.677c0.463-0.697,0.795-1.49,1-2.387c0.205-0.893,0.308-1.813,0.308-2.758
		C159.117,98.139,158.996,97.264,158.754,96.406z"/>
	<path fill="#333333" d="M165.971,95.252c0.412-1.23,1.027-2.298,1.848-3.206c0.821-0.906,1.836-1.619,3.045-2.143
		c1.204-0.521,2.59-0.782,4.157-0.782c1.592,0,2.983,0.261,4.176,0.782c1.197,0.523,2.202,1.237,3.024,2.143
		c0.82,0.908,1.437,1.976,1.849,3.206c0.41,1.229,0.615,2.553,0.615,3.968c0,1.417-0.205,2.733-0.615,3.951
		c-0.412,1.218-1.028,2.279-1.849,3.187c-0.822,0.907-1.827,1.615-3.024,2.125c-1.192,0.508-2.584,0.763-4.176,0.763
		c-1.567,0-2.953-0.255-4.157-0.763c-1.209-0.51-2.224-1.218-3.045-2.125c-0.82-0.907-1.436-1.969-1.848-3.187
		c-0.411-1.218-0.614-2.534-0.614-3.951C165.356,97.805,165.56,96.481,165.971,95.252z M169.303,102.333
		c0.319,0.907,0.762,1.664,1.327,2.273c0.565,0.607,1.228,1.073,1.984,1.396c0.756,0.323,1.559,0.483,2.406,0.483
		c0.847,0,1.648-0.16,2.407-0.483c0.758-0.323,1.416-0.789,1.982-1.396c0.563-0.609,1.006-1.366,1.329-2.273
		c0.318-0.907,0.479-1.944,0.479-3.113c0-1.168-0.161-2.204-0.479-3.111c-0.323-0.906-0.767-1.671-1.329-2.291
		c-0.566-0.621-1.225-1.094-1.982-1.418c-0.759-0.322-1.561-0.483-2.407-0.483c-0.848,0-1.65,0.162-2.406,0.483
		c-0.757,0.324-1.419,0.797-1.984,1.418c-0.565,0.62-1.008,1.385-1.327,2.291c-0.32,0.907-0.483,1.943-0.483,3.111
		C168.819,100.389,168.982,101.426,169.303,102.333z"/>
	<rect x="188.728" y="89.568" fill="#333333" width="3.273" height="19.268"/>
	<path fill="#333333" d="M200.163,89.568v3.055h0.076c1.361-2.334,3.518-3.501,6.47-3.501c1.31,0,2.401,0.174,3.271,0.521
		c0.873,0.348,1.581,0.832,2.119,1.453c0.539,0.622,0.917,1.361,1.137,2.217c0.218,0.858,0.326,1.808,0.326,2.851v12.672h-3.272
		V95.791c0-1.192-0.36-2.137-1.078-2.832c-0.72-0.695-1.707-1.043-2.966-1.043c-1.001,0-1.866,0.148-2.6,0.446
		c-0.729,0.3-1.34,0.722-1.828,1.268c-0.487,0.547-0.854,1.187-1.098,1.918c-0.243,0.733-0.366,1.535-0.366,2.404v10.883h-3.272
		V89.568H200.163z"/>
	<path fill="#333333" d="M227,89.568v2.795h-3.965v11.963c0,0.372,0.029,0.671,0.095,0.894c0.065,0.226,0.187,0.398,0.366,0.523
		c0.179,0.124,0.431,0.204,0.752,0.241c0.319,0.037,0.737,0.056,1.249,0.056H227v2.796h-2.503c-0.847,0-1.573-0.056-2.176-0.168
		c-0.604-0.111-1.092-0.317-1.463-0.614c-0.371-0.3-0.648-0.721-0.828-1.268c-0.179-0.547-0.269-1.268-0.269-2.161V92.363h-3.389
		v-2.795h3.389v-5.776h3.273v5.776H227z"/>
	<path fill="#FCA13F" d="M37.849,96.954l3.019,2.929l9.545,8.91l4.112-3.97c0.377-0.518,0.352-1.22-0.079-1.71l-3.757-3.295
		l0.013-0.002l-4.05-3.927c-0.474-0.539-0.462-1.339,0.04-1.86l10.896-10.524l-4.951-4.804L40.88,90.057l-3.026,2.921
		C36.717,94.076,36.715,95.856,37.849,96.954z"/>
	<path fill="#248AAF" d="M70.35,102.046l-3.018-2.93l-9.545-8.911l-4.113,3.973c-0.377,0.515-0.352,1.218,0.079,1.709l3.757,3.295
		l-0.014,0.001l4.05,3.928c0.474,0.538,0.462,1.338-0.041,1.86l-10.896,10.523l4.952,4.805l11.756-11.357l3.027-2.92
		C71.481,104.925,71.483,103.144,70.35,102.046z"/>
	<ellipse fill="#333333" cx="104.077" cy="85.637" rx="1.907" ry="1.847"/>
	<ellipse fill="#333333" cx="190.365" cy="85.637" rx="1.907" ry="1.847"/>
</g>
</svg>
